<?xml version="1.0" encoding="UTF-8" standalone="no"?>
<svg
   xmlns:dc="http://purl.org/dc/elements/1.1/"
   xmlns:cc="http://creativecommons.org/ns#"
   xmlns:rdf="http://www.w3.org/1999/02/22-rdf-syntax-ns#"
   xmlns:svg="http://www.w3.org/2000/svg"
   xmlns="http://www.w3.org/2000/svg"
   xmlns:sodipodi="http://sodipodi.sourceforge.net/DTD/sodipodi-0.dtd"
   xmlns:inkscape="http://www.inkscape.org/namespaces/inkscape"
   id="svg4598"
   version="1.1"
   viewBox="0 0 197.94624 124.58164"
   height="124.58163mm"
   width="197.94623mm"
   sodipodi:docname="restapi4.svg"
   inkscape:version="0.92.3 (2405546, 2018-03-11)">
  <sodipodi:namedview
     pagecolor="#ffffff"
     bordercolor="#666666"
     borderopacity="1"
     objecttolerance="10"
     gridtolerance="10"
     guidetolerance="10"
     inkscape:pageopacity="0"
     inkscape:pageshadow="2"
     inkscape:window-width="1280"
     inkscape:window-height="961"
     id="namedview2807"
     showgrid="false"
     inkscape:zoom="1.0024218"
     inkscape:cx="298.6583"
     inkscape:cy="176.3141"
     inkscape:window-x="-8"
     inkscape:window-y="-8"
     inkscape:window-maximized="1"
     inkscape:current-layer="layer1" />
  <defs
     id="defs4592" />
  <metadata
     id="metadata4595">
    <rdf:RDF>
      <cc:Work
         rdf:about="">
        <dc:format>image/svg+xml</dc:format>
        <dc:type
           rdf:resource="http://purl.org/dc/dcmitype/StillImage" />
        <dc:title />
      </cc:Work>
    </rdf:RDF>
  </metadata>
  <g
     transform="translate(255.67248,140.97411)"
     id="layer1">
    <g
       id="g2671-7-7-4"
       transform="matrix(-0.69892254,0,0,1.2058823,-637.34485,666.60068)">
      <rect
         style="opacity:1;vector-effect:none;fill:#d7d7d7;fill-opacity:1;stroke:none;stroke-width:0.30000001;stroke-linecap:butt;stroke-linejoin:miter;stroke-miterlimit:4;stroke-dasharray:none;stroke-dashoffset:0;stroke-opacity:1"
         id="rect2655-9-6-0"
         width="91.299271"
         height="44.527103"
         x="-706.44678"
         y="-616.74103"
         ry="3.7837534" />
      <path
         style="fill:#d7d7d7;fill-opacity:1;stroke:none;stroke-width:0.26458332px;stroke-linecap:butt;stroke-linejoin:miter;stroke-opacity:1"
         d="m -706.29328,-609.36801 c -0.9983,-3.71091 -6.26995,-7.25437 -6.26995,-7.25437 0,0 9.12087,-0.0742 11.54409,-0.0882 2.42323,-0.014 -3.10936,10.32212 -3.10936,10.32212 z"
         id="path2657-7-4-6"
         inkscape:connector-curvature="0" />
    </g>
    <g
       transform="matrix(0.48920088,0,0,0.48920088,-251.60905,-109.26103)"
       id="g913-9-3-6-5">
      <rect
         style="fill:#ef4665;fill-opacity:1;stroke-width:0.1797681"
         id="rect33-6-2-9-2"
         width="61.854004"
         height="41.334473"
         x="7.4298229"
         y="14.994742"
         ry="3.7477584" />
      <rect
         style="fill:#f4f4f4;fill-opacity:1;stroke-width:0.19236258"
         id="rect35-9-6-5-0"
         width="59.949574"
         height="32.165207"
         x="8.2944689"
         y="19.652138"
         ry="0" />
      <rect
         style="fill:#ef4665;fill-opacity:1;stroke-width:0.16153683"
         id="rect37-2-1-3-7"
         width="8.638361"
         height="10.911613"
         x="33.998718"
         y="52.747601" />
      <g
         id="g45-8-9-5-5"
         style="fill:#ef4665;fill-opacity:1"
         transform="matrix(0.68043759,0,0,0.68043759,4.1892389,-64.231769)">
        <rect
           ry="3.3745656"
           y="187.15222"
           x="34.611404"
           height="6.7491312"
           width="31.404167"
           id="rect39-5-5-0-1"
           style="fill:#ef4665;fill-opacity:1;stroke-width:0.30202931" />
        <rect
           ry="1.0866816"
           y="189.39018"
           x="34.632069"
           height="4.9136906"
           width="31.372025"
           id="rect41-5-9-4-9"
           style="fill:#ef4665;fill-opacity:1;stroke-width:0.18018626" />
      </g>
    </g>
    <g
       transform="matrix(0.48920088,0,0,0.48920088,-251.60905,-109.26103)"
       id="g983-1-7-0-30">
      <g
         id="g974-65-0-9-7">
        <g
           transform="matrix(0.68043759,0,0,0.68043759,80.591015,-5.8680946)"
           id="g50-49-5-6-4">
          <g
             id="g905-6-0-9-5">
            <rect
               ry="5.1026788"
               style="fill:#ef4665;fill-opacity:1;stroke-width:0.26458332"
               y="60.764877"
               x="-37.608631"
               height="47.813984"
               width="26.269346"
               id="rect21-6-3-1-2" />
            <rect
               ry="0"
               y="66.094345"
               x="-36.701485"
               height="36.843182"
               width="24.379463"
               id="rect23-9-4-1-4"
               style="fill:#f4f4f4;fill-opacity:1;stroke-width:0.26494446" />
            <rect
               ry="1.2756697"
               y="104.25577"
               x="-26.789062"
               height="2.5513394"
               width="5.4806542"
               id="rect31-3-0-5-1"
               style="fill:#f4f4f4;fill-opacity:1;stroke-width:0.26458332" />
          </g>
        </g>
      </g>
    </g>
    <rect
       ry="17.019848"
       y="-140.17436"
       x="-254.87273"
       height="122.98213"
       width="196.34673"
       id="rect52-1-3-0-08"
       style="fill:none;fill-opacity:1;stroke-width:1.59950531;stroke-miterlimit:4;stroke-dasharray:none;stroke-opacity:1" />
    <rect
       ry="5.298008"
       y="-113.46764"
       x="-129.875"
       height="58.933659"
       width="62.774075"
       id="rect962-1-6-3-4"
       style="fill:#384359;fill-opacity:1;stroke:none;stroke-width:1.02859414;stroke-miterlimit:4;stroke-dasharray:none;stroke-opacity:1" />
    <rect
       ry="4.2198539"
       y="-95.034714"
       x="-136.4115"
       height="23.210346"
       width="32.094757"
       id="rect962-1-6-0-8-6-1"
       style="fill:#ef4665;fill-opacity:1;stroke:none;stroke-width:0.46156198;stroke-miterlimit:4;stroke-dasharray:none;stroke-opacity:1" />
    <rect
       ry="2.3821135"
       y="-101.07531"
       x="-100.84372"
       height="7.8690753"
       width="30.656738"
       id="rect962-1-6-0-8-6-1-0"
       style="fill:#d7d7d7;fill-opacity:1;stroke:none;stroke-width:0.26266187;stroke-miterlimit:4;stroke-dasharray:none;stroke-opacity:1" />
    <text
       id="text966-7-4-0-9"
       y="-96.144699"
       x="-90.118484"
       style="font-style:normal;font-variant:normal;font-weight:normal;font-stretch:normal;font-size:2.82578516px;line-height:1.25;font-family:Roboto;-inkscape-font-specification:Roboto;letter-spacing:0px;word-spacing:0px;fill:#384359;fill-opacity:1;stroke:none;stroke-width:0.11774105"
       xml:space="preserve"><tspan
         style="font-style:normal;font-variant:normal;font-weight:600;font-stretch:normal;font-size:2.82578516px;font-family:Roboto;-inkscape-font-specification:'Roboto Semi-Bold';fill:#384359;fill-opacity:1;stroke-width:0.11774105"
         y="-96.144699"
         x="-90.118484"
         id="tspan964-7-7-8-0">PARSE</tspan></text>
    <rect
       ry="2.3821135"
       y="-88.166252"
       x="-100.84372"
       height="7.8690753"
       width="30.656738"
       id="rect962-1-6-0-8-6-1-0-1"
       style="fill:#d7d7d7;fill-opacity:1;stroke:none;stroke-width:0.26266187;stroke-miterlimit:4;stroke-dasharray:none;stroke-opacity:1" />
    <text
       id="text966-8-8-6-1-4"
       y="-83.235649"
       x="-92.194031"
       style="font-style:normal;font-variant:normal;font-weight:normal;font-stretch:normal;font-size:2.82578516px;line-height:1.25;font-family:Roboto;-inkscape-font-specification:Roboto;letter-spacing:0px;word-spacing:0px;fill:#384359;fill-opacity:1;stroke:none;stroke-width:0.11774105"
       xml:space="preserve"><tspan
         style="font-style:normal;font-variant:normal;font-weight:600;font-stretch:normal;font-size:2.82578516px;font-family:Roboto;-inkscape-font-specification:'Roboto Semi-Bold';fill:#384359;fill-opacity:1;stroke-width:0.11774105"
         y="-83.235649"
         x="-92.194031"
         id="tspan964-4-7-3-1-3">VALIDATE</tspan></text>
    <rect
       ry="2.3821135"
       y="-75.818413"
       x="-100.84373"
       height="7.8690753"
       width="30.656738"
       id="rect962-1-6-0-8-6-1-0-9"
       style="fill:#d7d7d7;fill-opacity:1;stroke:none;stroke-width:0.26266187;stroke-miterlimit:4;stroke-dasharray:none;stroke-opacity:1" />
    <text
       id="text966-8-5-5-4-3-94"
       y="-70.887802"
       x="-91.812851"
       style="font-style:normal;font-variant:normal;font-weight:normal;font-stretch:normal;font-size:2.82578516px;line-height:1.25;font-family:Roboto;-inkscape-font-specification:Roboto;letter-spacing:0px;word-spacing:0px;fill:#384359;fill-opacity:1;stroke:none;stroke-width:0.11774105"
       xml:space="preserve"><tspan
         style="font-style:normal;font-variant:normal;font-weight:600;font-stretch:normal;font-size:2.82578516px;font-family:Roboto;-inkscape-font-specification:'Roboto Semi-Bold';fill:#384359;fill-opacity:1;stroke-width:0.11774105"
         y="-70.887802"
         x="-91.812851"
         id="tspan964-4-5-8-5-7-6">EXECUTE</tspan></text>
    <g
       transform="matrix(0.58515605,0,0,0.61462227,-255.94145,-133.74864)"
       id="g965-6-0-5-7">
      <g
         transform="matrix(1,0,0,0.90307222,1.2169926,67.081571)"
         id="g983-2-8-2-9-0-6" />
      <path
         style="fill:#6b7285;fill-opacity:1;stroke:none;stroke-width:0.02551924px;stroke-linecap:butt;stroke-linejoin:miter;stroke-opacity:1"
         d="m 78.267128,83.884995 12.152077,5.487432 0.0055,-5.349234 0.01229,-5.569992 z"
         id="path945-1-6-3-9-1-1" />
    </g>
    <text
       xml:space="preserve"
       style="font-style:normal;font-weight:normal;font-size:4.70964336px;line-height:1.25;font-family:sans-serif;letter-spacing:0px;word-spacing:0px;fill:#000000;fill-opacity:1;stroke:none;stroke-width:0.11774105"
       x="-201.85544"
       y="-85.076042"
       id="text958-1-1-4-6"><tspan
         id="tspan956-0-3-4-1"
         x="-201.85544"
         y="-85.076042"
         style="font-style:normal;font-variant:normal;font-weight:600;font-stretch:normal;font-size:2.82222223px;font-family:Roboto;-inkscape-font-specification:'Roboto Semi-Bold';stroke-width:0.11774105">HTTP POST</tspan></text>
    <path
       id="path6759-9-5-6-5"
       d="m -183.34845,-84.837528 c 0.74772,0.01169 2.64873,0.01889 3.38821,0.0159 0.58471,-0.0021 0.4984,-1.870101 -0.63575,-1.50436 0,0 0.1101,-1.044011 -1.02389,-1.04077 -1.18799,0.003 -1.17076,0.883081 -1.17076,0.883081 0,0 -0.46868,-0.11068 -0.7789,0.0897 -0.76469,0.493779 -0.32144,1.547961 0.22109,1.556481 z"
       style="fill:none;stroke:#ef4665;stroke-width:0.34768906;stroke-linecap:butt;stroke-linejoin:miter;stroke-miterlimit:4;stroke-dasharray:none;stroke-opacity:1" />
    <g
       id="g983-2-8-2-9-5-7-94"
       transform="matrix(-0.58515605,0,0,0.60811164,-95.303746,-101.02248)">
      <g
         id="g974-2-9-4-4-1-9-0">
        <g
           transform="matrix(0.68043759,0,0,0.68043759,80.591015,-5.8680946)"
           id="g50-1-5-0-3-5-0-5">
          <rect
             ry="1.2756691"
             y="34.600807"
             x="8.2117138"
             height="3.3329391"
             width="161.48683"
             id="rect919-3-2-2-9-4-2-2"
             style="fill:#6b7285;fill-opacity:1;stroke:none;stroke-width:4.1643548;stroke-miterlimit:4;stroke-dasharray:none;stroke-opacity:1" />
        </g>
      </g>
    </g>
    <path
       id="path945-1-6-3-9-9-4-5"
       d="m -140.50349,-89.592471 -7.11086,3.570194 -0.003,-3.480274 -0.007,-3.6239 z"
       style="fill:#6b7285;fill-opacity:1;stroke:none;stroke-width:0.0157458px;stroke-linecap:butt;stroke-linejoin:miter;stroke-opacity:1" />
    <g
       id="g983-2-8-2-9-5-1-3-3"
       transform="matrix(-0.58515605,0,0,0.60811164,-90.707576,-93.652491)">
      <g
         id="g974-2-9-4-4-1-7-0-1">
        <g
           transform="matrix(0.68043759,0,0,0.68043759,80.591015,-5.8680946)"
           id="g50-1-5-0-3-5-5-8-9">
          <rect
             ry="1.2756691"
             y="34.600807"
             x="8.2117138"
             height="3.3329391"
             width="161.48683"
             id="rect919-3-2-2-9-4-6-7-8"
             style="fill:#6b7285;fill-opacity:1;stroke:none;stroke-width:4.1643548;stroke-miterlimit:4;stroke-dasharray:none;stroke-opacity:1" />
        </g>
      </g>
    </g>
    <path
       id="path11266-2"
       d="m -120.77514,-75.713755 c -0.57142,-0.175951 -1.01219,-0.873252 -0.91514,-1.447732 l 0.0385,-0.228049 -1.56498,-0.905521 c -1.53061,-0.88564 -1.56825,-0.90347 -1.71365,-0.811509 -0.83134,0.525748 -1.69637,0.328129 -2.10434,-0.480732 -0.1361,-0.269838 -0.12611,-0.85553 0.0194,-1.140849 0.13493,-0.264469 0.48521,-0.589079 0.7264,-0.673161 l 0.16913,-0.059 v -1.83048 -1.830491 l -0.19004,-0.0787 c -0.4997,-0.206981 -0.84029,-0.712042 -0.83892,-1.244021 0.001,-0.41053 0.11929,-0.692481 0.40799,-0.97286 0.44424,-0.431432 1.1251,-0.491241 1.66857,-0.146582 l 0.2771,0.175742 1.55284,-0.89276 1.55284,-0.892761 0.001,-0.37866 c 0.004,-1.14092 1.16439,-1.78038 2.09409,-1.15348 0.3858,0.26015 0.57435,0.6389 0.5696,1.1442 l -0.004,0.37979 1.46437,0.844211 c 0.8054,0.46432 1.50562,0.86909 1.55604,0.899499 0.0657,0.0396 0.1713,0.005 0.37298,-0.123119 0.71187,-0.451461 1.58164,-0.202181 1.967,0.563751 0.13584,0.269988 0.12573,0.855818 -0.0197,1.140848 -0.1349,0.26443 -0.43616,0.54464 -0.70548,0.656202 l -0.19005,0.0787 v 1.829091 1.829081 l 0.19005,0.0787 c 0.26933,0.111559 0.57058,0.391769 0.70548,0.656198 0.14556,0.285322 0.15554,0.871011 0.0195,1.140852 -0.40091,0.794859 -1.37186,1.0277 -2.06882,0.496099 l -0.19699,-0.150249 -1.53977,0.887698 -1.53977,0.887712 -0.005,0.402579 c -0.009,0.67164 -0.3633,1.18369 -0.93822,1.354421 -0.35729,0.1061 -0.46052,0.1055 -0.81847,-0.005 z m 3.03456,-3.088543 c 0.85249,-0.490609 1.55045,-0.92547 1.55101,-0.966358 0.001,-0.0588 -0.87064,-0.0743 -4.16176,-0.0743 -2.28952,0 -4.16277,0.02289 -4.16277,0.0508 0,0.0459 2.88527,1.7398 3.11092,1.82639 0.0549,0.02111 0.17734,-0.0269 0.29202,-0.11434 0.23537,-0.17953 0.67511,-0.28942 0.94901,-0.237159 0.24677,0.0471 0.59637,0.21925 0.70089,0.345189 0.0436,0.0525 0.0998,0.0879 0.12498,0.0787 0.0251,-0.009 0.7432,-0.418259 1.5957,-0.90887 z m 1.55203,-1.712939 c 0,-0.0426 0.0812,-0.205589 0.18044,-0.362069 l 0.18043,-0.284522 -2.04922,-3.547959 -2.04923,-3.54796 h -0.42685 -0.42683 l -2.05063,3.551791 -2.05062,3.55178 0.12619,0.17722 c 0.0694,0.0975 0.15459,0.258678 0.1893,0.358249 l 0.0631,0.18103 h 4.15696 c 3.37809,0 4.15695,-0.0145 4.15695,-0.0776 z m -7.15952,-4.50398 c 1.12368,-1.94473 2.04356,-3.557904 2.04416,-3.584834 0.002,-0.0901 -0.14248,-0.015 -1.68413,0.874564 l -1.53384,0.885071 0.0385,0.227769 c 0.0628,0.371911 -0.10353,0.828759 -0.40164,1.102899 -0.13941,0.128202 -0.34045,0.268971 -0.44675,0.312801 l -0.19327,0.0797 v 1.841259 c 0,1.338271 0.0183,1.835161 0.067,1.818939 0.0368,-0.0123 0.98634,-1.613458 2.11004,-3.55818 z m 8.17048,1.73851 v -1.83207 l -0.24018,-0.10596 c -0.52425,-0.231299 -0.89259,-0.870969 -0.80759,-1.402501 l 0.0355,-0.221729 -1.5009,-0.86719 c -1.67426,-0.967354 -1.74894,-1.004974 -1.68987,-0.851054 0.034,0.0886 3.64279,6.367524 3.97683,6.919305 0.0644,0.106299 0.1416,0.19327 0.17163,0.19327 0.032,0 0.0546,-0.758791 0.0546,-1.832071 z"
       style="fill:#f4f4f4;fill-opacity:1;stroke:none;stroke-width:0.10114279;stroke-miterlimit:4;stroke-dasharray:none;stroke-opacity:1" />
    <g
       id="g2671-7-8-5"
       transform="matrix(0.71620719,0,0,-0.83193276,299.13803,-608.72544)">
      <rect
         style="opacity:1;vector-effect:none;fill:#d7d7d7;fill-opacity:1;stroke:none;stroke-width:0.30000001;stroke-linecap:butt;stroke-linejoin:miter;stroke-miterlimit:4;stroke-dasharray:none;stroke-dashoffset:0;stroke-opacity:1"
         id="rect2655-9-9-2"
         width="91.299271"
         height="47.827103"
         x="-706.44678"
         y="-616.74103"
         ry="3.7837534" />
      <path
         style="fill:#d7d7d7;fill-opacity:1;stroke:none;stroke-width:0.26458332px;stroke-linecap:butt;stroke-linejoin:miter;stroke-opacity:1"
         d="m -706.29328,-609.36801 c -0.9983,-3.71091 -6.26995,-7.25437 -6.26995,-7.25437 0,0 9.12087,-0.0742 11.54409,-0.0882 2.42323,-0.014 -3.10936,10.32212 -3.10936,10.32212 z"
         id="path2657-7-2-7" />
    </g>
    <text
       id="text5012-4-9"
       y="-132.74419"
       x="-199.95825"
       style="font-style:normal;font-weight:normal;font-size:2.57320499px;line-height:1.25;font-family:sans-serif;letter-spacing:0px;word-spacing:0px;fill:#000000;fill-opacity:1;stroke:none;stroke-width:0.06433012"
       xml:space="preserve"><tspan
         id="tspan5028-5-3"
         style="font-style:normal;font-variant:normal;font-weight:normal;font-stretch:normal;font-size:2.82578516px;line-height:0;font-family:Roboto;-inkscape-font-specification:Roboto;stroke-width:0.06433012"
         y="-130.4675"
         x="-199.95825" /><tspan
         id="tspan5651-8"
         style="font-style:normal;font-variant:normal;font-weight:normal;font-stretch:normal;font-size:2.66879725px;line-height:0;font-family:Roboto;-inkscape-font-specification:Roboto;stroke-width:0.06433012"
         y="-130.46701"
         x="-199.95825">query {</tspan><tspan
         id="tspan5653-8"
         style="font-style:normal;font-variant:normal;font-weight:normal;font-stretch:normal;font-size:2.66879725px;line-height:0;font-family:Roboto;-inkscape-font-specification:Roboto;stroke-width:0.06433012"
         y="-127.2505"
         x="-199.95825">    User (id: &quot;44&quot;) {</tspan><tspan
         id="tspan5655-7"
         style="font-style:normal;font-variant:normal;font-weight:normal;font-stretch:normal;font-size:2.66879725px;line-height:0;font-family:Roboto;-inkscape-font-specification:Roboto;stroke-width:0.06433012"
         y="-124.03449"
         x="-199.95825">      name</tspan><tspan
         id="tspan5657-5"
         style="font-style:normal;font-variant:normal;font-weight:normal;font-stretch:normal;font-size:2.66879725px;line-height:0;font-family:Roboto;-inkscape-font-specification:Roboto;stroke-width:0.06433012"
         y="-120.81799"
         x="-199.95825">      posts {</tspan><tspan
         id="tspan5659-9"
         style="font-style:normal;font-variant:normal;font-weight:normal;font-stretch:normal;font-size:2.66879725px;line-height:0;font-family:Roboto;-inkscape-font-specification:Roboto;stroke-width:0.06433012"
         y="-117.60148"
         x="-199.95825">	         title</tspan><tspan
         id="tspan5661-2"
         style="font-style:normal;font-variant:normal;font-weight:normal;font-stretch:normal;font-size:2.66879725px;line-height:0;font-family:Roboto;-inkscape-font-specification:Roboto;stroke-width:0.06433012"
         y="-114.38497"
         x="-199.95825">      }</tspan><tspan
         id="tspan5663-3"
         style="font-style:normal;font-variant:normal;font-weight:normal;font-stretch:normal;font-size:2.66879725px;line-height:0;font-family:Roboto;-inkscape-font-specification:Roboto;stroke-width:0.06433012"
         y="-111.16846"
         x="-199.95825">      friends {</tspan><tspan
         id="tspan5665-4"
         style="font-style:normal;font-variant:normal;font-weight:normal;font-stretch:normal;font-size:2.66879725px;line-height:0;font-family:Roboto;-inkscape-font-specification:Roboto;stroke-width:0.06433012"
         y="-107.95196"
         x="-199.95825">	         name</tspan>
      <tspan
         id="tspan5665-4"
         style="font-style:normal;font-variant:normal;font-weight:normal;font-stretch:normal;font-size:2.66879725px;line-height:0;font-family:Roboto;-inkscape-font-specification:Roboto;stroke-width:0.06433012"
         y="-104.73545"
         x="-199.95825">      }</tspan>
      <tspan
         id="tspan5667-6"
         style="font-style:normal;font-variant:normal;font-weight:normal;font-stretch:normal;font-size:2.66879725px;line-height:0;font-family:Roboto;-inkscape-font-specification:Roboto;stroke-width:0.06433012"
         y="-101.51894"
         x="-199.95825">    }</tspan><tspan
         id="tspan5669-1"
         style="font-style:normal;font-variant:normal;font-weight:normal;font-stretch:normal;font-size:2.66879725px;line-height:0;font-family:Roboto;-inkscape-font-specification:Roboto;stroke-width:0.06433012"
         y="-98.302444"
         x="-199.95825">}</tspan></text>
    <text
       id="text5012-4-3-0"
       y="-77.597832"
       x="-199.84998"
       style="font-style:normal;font-weight:normal;font-size:2.57320499px;line-height:1.25;font-family:sans-serif;letter-spacing:0px;word-spacing:0px;fill:#000000;fill-opacity:1;stroke:none;stroke-width:0.06433012"
       xml:space="preserve"><tspan
         id="tspan5669-0-9"
         style="font-style:normal;font-variant:normal;font-weight:normal;font-stretch:normal;font-size:2.82578516px;line-height:0;font-family:Roboto;-inkscape-font-specification:Roboto;stroke-width:0.06433012"
         y="-75.321152"
         x="-199.84998" /><tspan
         id="tspan5784-9"
         style="font-style:normal;font-variant:normal;font-weight:normal;font-stretch:normal;font-size:2.66879725px;line-height:0;font-family:Roboto;-inkscape-font-specification:Roboto;stroke-width:0.06433012"
         y="-72.104645"
         x="-199.84998">{</tspan><tspan
         id="tspan5786-2"
         style="font-style:normal;font-variant:normal;font-weight:normal;font-stretch:normal;font-size:2.66879725px;line-height:0;font-family:Roboto;-inkscape-font-specification:Roboto;stroke-width:0.06433012"
         y="-68.888138"
         x="-199.84998">    &quot;data&quot;:  {</tspan><tspan
         id="tspan5788-8"
         style="font-style:normal;font-variant:normal;font-weight:normal;font-stretch:normal;font-size:2.66879725px;line-height:0;font-family:Roboto;-inkscape-font-specification:Roboto;stroke-width:0.06433012"
         y="-65.671631"
         x="-199.84998">      &quot;User&quot;:  {</tspan><tspan
         id="tspan5790-2"
         style="font-style:normal;font-variant:normal;font-weight:normal;font-stretch:normal;font-size:2.66879725px;line-height:0;font-family:Roboto;-inkscape-font-specification:Roboto;stroke-width:0.06433012"
         y="-62.455124"
         x="-199.84998">      &quot;name&quot;: &quot;Mateusz&quot;,</tspan><tspan
         id="tspan5792-2"
         style="font-style:normal;font-variant:normal;font-weight:normal;font-stretch:normal;font-size:2.66879725px;line-height:0;font-family:Roboto;-inkscape-font-specification:Roboto;stroke-width:0.06433012"
         y="-59.238617"
         x="-199.84998">      &quot;posts&quot;: [</tspan><tspan
         id="tspan5794-4"
         style="font-style:normal;font-variant:normal;font-weight:normal;font-stretch:normal;font-size:2.66879725px;line-height:0;font-family:Roboto;-inkscape-font-specification:Roboto;stroke-width:0.06433012"
         y="-56.02211"
         x="-199.84998">            { title: &quot;Cool slide bro&quot; }</tspan><tspan
         id="tspan5796-0"
         style="font-style:normal;font-variant:normal;font-weight:normal;font-stretch:normal;font-size:2.66879725px;line-height:0;font-family:Roboto;-inkscape-font-specification:Roboto;stroke-width:0.06433012"
         y="-52.805603"
         x="-199.84998">      ],</tspan><tspan
         id="tspan5798-7"
         style="font-style:normal;font-variant:normal;font-weight:normal;font-stretch:normal;font-size:2.66879725px;line-height:0;font-family:Roboto;-inkscape-font-specification:Roboto;stroke-width:0.06433012"
         y="-49.5891"
         x="-199.84998">      &quot;friends&quot;:  [</tspan><tspan
         id="tspan5800-8"
         style="font-style:normal;font-variant:normal;font-weight:normal;font-stretch:normal;font-size:2.66879725px;line-height:0;font-family:Roboto;-inkscape-font-specification:Roboto;stroke-width:0.06433012"
         y="-46.372593"
         x="-199.84998">            { name: &quot;Mariusz&quot; },</tspan><tspan
         id="tspan5802-5"
         style="font-style:normal;font-variant:normal;font-weight:normal;font-stretch:normal;font-size:2.66879725px;line-height:0;font-family:Roboto;-inkscape-font-specification:Roboto;stroke-width:0.06433012"
         y="-43.156086"
         x="-199.84998">            { name: &quot;Paulina&quot; },</tspan><tspan
         id="tspan5804-4"
         style="font-style:normal;font-variant:normal;font-weight:normal;font-stretch:normal;font-size:2.66879725px;line-height:0;font-family:Roboto;-inkscape-font-specification:Roboto;stroke-width:0.06433012"
         y="-39.939579"
         x="-199.84998">            { name: &quot;Beata&quot; },</tspan><tspan
         id="tspan5806-7"
         style="font-style:normal;font-variant:normal;font-weight:normal;font-stretch:normal;font-size:2.66879725px;line-height:0;font-family:Roboto;-inkscape-font-specification:Roboto;stroke-width:0.06433012"
         y="-36.723072"
         x="-199.84998">      ]</tspan><tspan
         id="tspan5808-0"
         style="font-style:normal;font-variant:normal;font-weight:normal;font-stretch:normal;font-size:2.66879725px;line-height:0;font-family:Roboto;-inkscape-font-specification:Roboto;stroke-width:0.06433012"
         y="-33.506569"
         x="-199.84998">    }</tspan><tspan
         id="tspan5810-6"
         style="font-style:normal;font-variant:normal;font-weight:normal;font-stretch:normal;font-size:2.66879725px;line-height:0;font-family:Roboto;-inkscape-font-specification:Roboto;stroke-width:0.06433012"
         y="-30.290062"
         x="-199.84998">  }</tspan><tspan
         id="tspan5812-0"
         style="font-style:normal;font-variant:normal;font-weight:normal;font-stretch:normal;font-size:2.66879725px;line-height:0;font-family:Roboto;-inkscape-font-specification:Roboto;stroke-width:0.06433012"
         y="-27.073555"
         x="-199.84998">}</tspan><tspan
         id="tspan5814-5"
         style="font-style:normal;font-variant:normal;font-weight:normal;font-stretch:normal;font-size:2.66879725px;line-height:0;font-family:Roboto;-inkscape-font-specification:Roboto;stroke-width:0.06433012"
         y="-23.857048"
         x="-199.84998" /></text>
  </g>
</svg>
